<?xml version="1.0" encoding="UTF-8" standalone="no"?>
<!DOCTYPE svg PUBLIC "-//W3C//DTD SVG 1.1//EN" "http://www.w3.org/Graphics/SVG/1.1/DTD/svg11.dtd">
<svg version="1.1" xmlns="http://www.w3.org/2000/svg" xmlns:xlink="http://www.w3.org/1999/xlink" preserveAspectRatio="xMidYMid meet" viewBox="106.14805555555553 274.77675 429.72431818181815 141.3049469696969" width="425.72" height="137.3"><defs><path d="M143.74 275.86L143.97 275.99L144.17 276.17L144.34 276.4L144.48 276.68L144.59 277.01L144.68 277.39L144.73 277.82L144.79 279.07L144.8 280.31L144.75 281.55L144.65 282.78L144.5 284L144.3 285.21L144.05 286.4L143.76 287.59L143.43 288.76L143.06 289.92L142.66 291.06L142.22 292.19L141.76 293.3L141.27 294.4L140.75 295.47L140.21 296.53L139.65 297.57L139.08 298.59L138.49 299.58L137.89 300.56L137.28 301.51L136.67 302.43L136.05 303.33L135.43 304.21L134.81 305.06L134.2 305.88L133.6 306.67L133 307.44L132.42 308.17L131.85 308.87L131.3 309.55L130.77 310.19L130.27 310.79L129.79 311.36L129.34 311.9L128.92 312.4L128.53 312.86L128.18 313.29L127.87 313.67L127.6 314.02L127.5 314.2L127.34 314.55L127.13 315.07L126.85 315.74L126.52 316.57L126.15 317.53L125.72 318.62L125.26 319.82L124.76 321.14L124.23 322.56L123.66 324.07L123.07 325.66L122.46 327.32L121.82 329.05L121.18 330.83L120.52 332.65L119.85 334.5L119.18 336.38L118.51 338.27L117.85 340.17L117.19 342.07L116.54 343.95L115.91 345.81L115.3 347.63L114.71 349.42L114.15 351.15L113.62 352.82L113.12 354.42L112.66 355.94L112.24 357.37L111.87 358.71L111.55 359.93L111.28 361.04L111.06 362.02L110.91 362.86L110.82 363.55L110.8 364.09L110.86 364.47L110.98 364.67L111.19 364.69L111.96 364.36L112.81 363.85L113.74 363.18L114.74 362.35L115.8 361.36L116.92 360.23L118.1 358.97L119.32 357.58L120.59 356.08L121.9 354.47L123.25 352.75L124.62 350.95L126.01 349.06L127.42 347.1L128.85 345.07L130.28 342.99L131.71 340.86L133.14 338.68L134.56 336.48L135.97 334.25L137.36 332.01L138.72 329.77L140.05 327.52L141.35 325.29L142.61 323.08L143.82 320.9L144.99 318.75L146.09 316.66L147.14 314.61L148.11 312.63L149.02 310.72L149.85 308.89L150.59 307.15L151.25 305.51L151.81 303.97L152.28 302.55L152.64 301.25L152.89 300.09L153.03 299.06L153.05 298.18L153.04 298L153.05 297.83L153.07 297.68L153.09 297.53L153.13 297.4L153.18 297.28L153.24 297.17L153.3 297.08L153.37 296.99L153.45 296.91L153.53 296.84L153.63 296.78L153.72 296.74L153.82 296.7L153.93 296.66L154.03 296.64L154.14 296.62L154.26 296.61L154.37 296.61L154.48 296.62L154.6 296.63L154.71 296.64L154.83 296.67L154.94 296.69L155.05 296.72L155.16 296.76L155.26 296.8L155.36 296.85L155.46 296.89L155.55 296.94L155.64 297L155.71 297.05L155.79 297.11L155.85 297.17L155.91 297.23L155.95 297.29L155.99 297.35L156.02 297.41L156.03 297.47L156.04 297.54L156.01 298.15L155.98 298.84L155.95 299.61L155.91 300.46L155.87 301.38L155.82 302.36L155.77 303.4L155.72 304.5L155.66 305.65L155.6 306.84L155.54 308.08L155.47 309.36L155.4 310.68L155.33 312.02L155.25 313.39L155.18 314.78L155.1 316.19L155.01 317.61L154.93 319.04L154.84 320.47L154.75 321.91L154.66 323.34L154.56 324.76L154.46 326.17L154.37 327.56L154.26 328.92L154.16 330.27L154.06 331.58L153.95 332.85L153.85 334.09L153.74 335.29L153.63 336.43L153.52 337.53L153.41 338.56L153.3 339.54L153.18 340.45L153.07 341.29L152.96 342.06L152.84 342.75L152.73 343.35L152.73 343.38L152.78 343.37L152.86 343.31L152.97 343.2L153.12 343.06L153.3 342.88L153.5 342.66L153.73 342.42L153.99 342.14L154.27 341.83L154.58 341.5L154.9 341.15L155.24 340.78L155.6 340.39L155.97 339.98L156.36 339.56L156.76 339.13L157.16 338.7L157.58 338.25L158 337.81L158.43 337.36L158.86 336.92L159.29 336.47L159.71 336.04L160.14 335.61L160.57 335.2L160.98 334.8L161.39 334.42L161.79 334.05L162.18 333.71L162.56 333.39L162.92 333.09L163.27 332.82L163.59 332.59L163.9 332.39L164.19 332.22L164.45 332.09L164.69 332L164.91 331.96L165.09 331.96L165.57 332.03L166.03 332.08L166.47 332.12L166.89 332.14L167.3 332.16L167.7 332.17L168.08 332.16L168.44 332.15L168.79 332.13L169.12 332.1L169.44 332.06L169.75 332.02L170.04 331.97L170.32 331.92L170.59 331.87L170.85 331.81L171.09 331.75L171.32 331.68L171.55 331.62L171.76 331.56L171.96 331.49L172.15 331.43L172.33 331.37L172.5 331.31L172.67 331.26L172.82 331.21L172.97 331.17L173.11 331.13L173.24 331.1L173.36 331.07L173.48 331.06L173.59 331.05L173.7 331.05L173.8 331.06L173.89 331.09L173.98 331.12L174.07 331.17L174.15 331.23L174.23 331.3L174.3 331.39L174.38 331.54L174.4 331.72L174.39 331.95L174.33 332.21L174.23 332.51L174.1 332.84L173.94 333.21L173.74 333.61L173.51 334.03L173.25 334.48L172.97 334.96L172.67 335.46L172.35 335.98L172.01 336.52L171.65 337.08L171.29 337.65L170.91 338.23L170.52 338.83L170.12 339.44L169.73 340.05L169.33 340.67L168.93 341.29L168.54 341.92L168.15 342.54L167.77 343.16L167.4 343.78L167.04 344.39L166.7 345L166.37 345.59L166.06 346.18L165.78 346.75L165.52 347.3L165.29 347.84L165.09 348.36L164.91 348.85L164.78 349.33L164.67 349.77L164.61 350.2L164.59 350.59L164.61 350.95L164.64 351.01L164.71 351.03L164.83 351L164.97 350.93L165.16 350.82L165.37 350.68L165.62 350.5L165.89 350.28L166.2 350.04L166.52 349.77L166.87 349.47L167.23 349.15L167.62 348.8L168.02 348.43L168.44 348.05L168.86 347.65L169.3 347.24L169.74 346.81L170.19 346.37L170.65 345.93L171.1 345.48L171.56 345.03L172.01 344.57L172.45 344.12L172.9 343.67L173.33 343.22L173.75 342.78L174.16 342.35L174.55 341.93L174.92 341.53L175.28 341.14L175.62 340.77L175.93 340.41L176.22 340.08L176.48 339.77L176.71 339.49L176.91 339.24L177.07 339.02L177.2 338.82L177.29 338.67L177.56 338.12L177.83 337.59L178.08 337.09L178.33 336.6L178.58 336.14L178.81 335.69L179.05 335.27L179.27 334.86L179.5 334.48L179.71 334.11L179.92 333.76L180.13 333.44L180.33 333.13L180.53 332.84L180.72 332.57L180.91 332.32L181.09 332.09L181.27 331.87L181.44 331.67L181.62 331.49L181.78 331.33L181.95 331.19L182.11 331.07L182.27 330.96L182.42 330.87L182.57 330.79L182.72 330.74L182.87 330.7L183.01 330.67L183.16 330.67L183.3 330.68L183.43 330.7L183.57 330.74L183.7 330.8L183.84 330.88L183.97 330.96L184.1 331.07L184.23 331.19L184.36 331.32L184.48 331.47L184.61 331.64L184.71 331.82L184.79 332L184.85 332.19L184.89 332.39L184.91 332.59L184.91 332.81L184.89 333.02L184.86 333.25L184.82 333.48L184.75 333.72L184.68 333.97L184.58 334.22L184.48 334.48L184.36 334.74L184.23 335.01L184.09 335.28L183.94 335.56L183.78 335.85L183.62 336.14L183.44 336.44L183.26 336.74L183.06 337.05L182.87 337.36L182.67 337.67L182.46 337.99L182.25 338.32L182.03 338.65L181.82 338.98L181.6 339.32L181.38 339.66L181.16 340L180.94 340.35L180.72 340.7L180.51 341.05L180.29 341.41L180.08 341.77L179.87 342.13L179.67 342.5L179.47 342.87L179.35 343.12L179.22 343.36L179.1 343.6L178.98 343.84L178.86 344.08L178.74 344.31L178.62 344.54L178.51 344.76L178.4 344.98L178.29 345.2L178.18 345.41L178.08 345.62L177.98 345.82L177.88 346.02L177.78 346.21L177.69 346.39L177.6 346.58L177.52 346.75L177.44 346.92L177.36 347.08L177.29 347.24L177.22 347.39L177.16 347.53L177.1 347.66L177.05 347.79L177 347.91L176.95 348.02L176.91 348.13L176.88 348.22L176.85 348.31L176.83 348.39L176.81 348.46L176.8 348.52L176.79 348.58L176.79 348.62L176.8 348.65L176.81 348.68L176.83 348.69L176.86 348.69L176.89 348.69L178.68 348.07L180.44 347.34L182.17 346.49L183.88 345.55L185.55 344.51L187.2 343.38L188.82 342.17L190.4 340.89L191.96 339.54L193.48 338.12L194.97 336.66L196.43 335.14L197.85 333.58L199.24 331.99L200.59 330.38L201.91 328.74L203.19 327.09L204.43 325.43L205.63 323.77L206.8 322.12L207.92 320.48L209.01 318.87L210.05 317.28L211.05 315.72L212 314.21L212.92 312.74L213.79 311.33L214.61 309.97L215.39 308.69L216.13 307.48L216.81 306.36L217.45 305.32L218.04 304.37L218.59 303.53L219.08 302.8L219.52 302.18L219.91 301.69L220.25 301.32L220.53 301.1L220.77 301.01L221.26 301.01L221.7 301.08L222.08 301.22L222.4 301.43L222.66 301.72L222.87 302.07L223.02 302.48L223.12 302.96L223.17 303.5L223.17 304.1L223.12 304.75L223.03 305.46L222.88 306.23L222.7 307.04L222.47 307.91L222.2 308.82L221.88 309.78L221.53 310.78L221.14 311.83L220.72 312.91L220.26 314.03L219.76 315.19L219.23 316.38L218.67 317.6L218.08 318.86L217.47 320.14L216.82 321.45L216.15 322.78L215.45 324.13L214.73 325.51L213.99 326.9L213.23 328.31L212.45 329.74L211.65 331.18L210.83 332.62L210 334.08L209.15 335.55L208.3 337.01L207.43 338.49L206.55 339.96L206.53 340.03L206.59 340.07L206.71 340.08L206.89 340.06L207.13 340.02L207.42 339.96L207.77 339.87L208.16 339.76L208.6 339.64L209.09 339.49L209.61 339.33L210.16 339.16L210.75 338.98L211.36 338.78L212.01 338.58L212.67 338.37L213.35 338.16L214.05 337.94L214.76 337.72L215.47 337.49L216.2 337.27L216.92 337.06L217.65 336.84L218.37 336.64L219.08 336.44L219.78 336.25L220.47 336.07L221.14 335.9L221.79 335.75L222.41 335.62L223.01 335.5L223.57 335.4L224.1 335.33L224.6 335.27L225.05 335.24L225.46 335.24L225.82 335.26L226.13 335.31L226.39 335.4L226.59 335.52L226.76 335.69L226.87 335.9L226.92 336.13L226.92 336.39L226.87 336.68L226.78 336.98L226.64 337.31L226.46 337.66L226.24 338.02L225.99 338.4L225.7 338.8L225.39 339.22L225.05 339.64L224.69 340.08L224.31 340.53L223.91 340.98L223.5 341.45L223.08 341.92L222.65 342.39L222.22 342.87L221.79 343.35L221.36 343.83L220.93 344.31L220.51 344.78L220.1 345.26L219.71 345.72L219.33 346.19L218.98 346.64L218.64 347.08L218.34 347.52L218.06 347.94L217.81 348.34L217.6 348.74L217.43 349.11L217.3 349.47L217.21 349.81L217.17 350.13L217.19 350.43L217.25 350.7L217.37 350.95L217.82 351.44L218.37 351.68L219.01 351.68L219.75 351.47L220.57 351.05L221.48 350.43L222.45 349.62L223.5 348.65L224.61 347.51L225.78 346.23L227 344.81L228.27 343.27L229.58 341.61L230.92 339.86L232.3 338.01L233.7 336.1L235.12 334.12L236.56 332.09L238.01 330.02L239.45 327.92L240.9 325.81L242.34 323.69L243.77 321.59L245.17 319.51L246.56 317.46L247.91 315.46L249.23 313.51L250.51 311.64L251.74 309.85L252.92 308.15L254.04 306.56L255.1 305.09L256.1 303.76L257.02 302.56L257.86 301.52L258.61 300.65L259.28 299.95L259.85 299.45L260.32 299.15L260.69 299.07L261.04 299.18L261.3 299.44L261.47 299.83L261.57 300.35L261.59 300.99L261.54 301.74L261.42 302.6L261.24 303.56L261 304.61L260.71 305.74L260.36 306.96L259.97 308.23L259.54 309.57L259.07 310.97L258.57 312.41L258.04 313.89L257.48 315.4L256.9 316.93L256.3 318.48L255.7 320.04L255.08 321.6L254.46 323.15L253.84 324.69L253.23 326.21L252.62 327.7L252.03 329.16L251.45 330.57L250.9 331.92L250.37 333.22L249.87 334.46L249.4 335.62L248.98 336.69L248.59 337.68L248.25 338.58L247.96 339.37L247.73 340.05L247.56 340.6L247.45 341.04L247.41 341.34L247.43 341.49L247.5 341.57L247.58 341.61L247.67 341.62L247.76 341.61L247.86 341.57L247.96 341.52L248.07 341.44L248.19 341.34L248.31 341.22L248.44 341.08L248.58 340.93L248.72 340.77L248.87 340.59L249.02 340.4L249.18 340.2L249.34 339.99L249.51 339.77L249.68 339.55L249.86 339.33L250.04 339.1L250.23 338.87L250.42 338.64L250.61 338.41L250.81 338.19L251.02 337.97L251.23 337.76L251.44 337.55L251.65 337.35L251.87 337.16L252.09 336.98L252.32 336.82L252.55 336.67L252.78 336.54L253.01 336.42L253.25 336.32L253.49 336.24L253.73 336.19L253.97 336.15L254.22 336.14L254.46 336.16L254.61 336.19L254.74 336.23L254.87 336.3L255 336.37L255.12 336.47L255.23 336.58L255.34 336.7L255.44 336.84L255.54 336.99L255.63 337.15L255.72 337.32L255.8 337.51L255.88 337.7L255.96 337.91L256.03 338.12L256.1 338.34L256.16 338.56L256.22 338.8L256.28 339.04L256.33 339.28L256.38 339.53L256.43 339.78L256.48 340.04L256.52 340.3L256.57 340.56L256.61 340.82L256.64 341.08L256.68 341.34L256.72 341.6L256.75 341.85L256.78 342.11L256.81 342.36L256.84 342.61L256.87 342.85L256.9 343.09L256.93 343.32L256.96 343.54L256.99 343.76L257.02 343.96L257.05 344.16L257.07 344.27L257.11 344.37L257.15 344.46L257.2 344.54L257.26 344.62L257.33 344.69L257.41 344.75L257.5 344.81L257.59 344.85L257.7 344.9L257.81 344.93L257.92 344.96L258.05 344.98L258.18 345L258.31 345.01L258.45 345.01L258.6 345L258.75 344.99L258.91 344.97L259.07 344.95L259.24 344.92L259.41 344.88L259.58 344.84L259.76 344.79L259.94 344.73L260.12 344.67L260.3 344.61L260.49 344.53L260.68 344.45L260.87 344.37L261.06 344.27L261.25 344.18L261.45 344.07L261.64 343.96L261.83 343.85L262.03 343.73L262.22 343.6L262.41 343.47L262.6 343.33L262.79 343.19L263.06 342.96L263.33 342.72L263.6 342.46L263.86 342.2L264.12 341.92L264.37 341.64L264.62 341.35L264.86 341.06L265.1 340.76L265.33 340.46L265.56 340.15L265.79 339.85L266.01 339.54L266.23 339.24L266.45 338.93L266.66 338.63L266.88 338.34L267.08 338.05L267.29 337.77L267.49 337.49L267.7 337.23L267.9 336.98L268.1 336.73L268.29 336.5L268.49 336.28L268.68 336.08L268.87 335.89L269.07 335.73L269.26 335.57L269.45 335.44L269.64 335.33L269.83 335.24L270.02 335.17L270.21 335.13L270.4 335.11L270.59 335.12L270.78 335.15L270.97 335.22L271.16 335.31L271.35 335.43L271.53 335.59L271.67 335.75L271.76 335.93L271.82 336.12L271.85 336.32L271.84 336.53L271.79 336.75L271.72 336.98L271.62 337.21L271.49 337.46L271.35 337.71L271.17 337.96L270.98 338.22L270.78 338.48L270.55 338.75L270.32 339.02L270.07 339.29L269.81 339.56L269.54 339.83L269.27 340.1L269 340.37L268.72 340.64L268.45 340.9L268.18 341.16L267.91 341.41L267.65 341.66L267.4 341.91L267.16 342.14L266.93 342.37L266.72 342.59L266.52 342.8L266.34 343.01L266.19 343.2L266.06 343.37L265.95 343.54L265.87 343.69L265.82 343.83L265.8 343.96L265.81 344.07L265.86 344.16L265.95 344.22L266.09 344.22L266.27 344.16L266.49 344.05L266.75 343.9L267.05 343.7L267.38 343.47L267.74 343.19L268.14 342.88L268.56 342.54L269.01 342.18L269.49 341.78L269.98 341.37L271.03 340.5L271.58 340.04L272.14 339.58L272.71 339.12L273.28 338.65L273.87 338.18L274.46 337.72L275.05 337.27L275.63 336.83L276.22 336.41L276.8 336L277.38 335.62L277.94 335.26L278.49 334.93L279.03 334.63L279.55 334.37L280.06 334.14L280.54 333.96L281 333.82L281.43 333.73L281.84 333.69L282.22 333.71L282.57 333.78L282.88 333.92L283.16 334.12L283.39 334.38L283.48 334.52L283.55 334.69L283.61 334.88L283.65 335.1L283.68 335.35L283.71 335.62L283.72 335.91L283.72 336.22L283.72 336.55L283.7 336.9L283.68 337.26L283.65 337.63L283.62 338.02L283.58 338.42L283.53 338.82L283.48 339.23L283.43 339.65L283.37 340.07L283.31 340.5L283.25 340.92L283.19 341.34L283.13 341.76L283.07 342.17L283.01 342.58L282.95 342.98L282.9 343.37L282.84 343.75L282.8 344.12L282.75 344.47L282.71 344.8L282.68 345.12L282.65 345.42L282.63 345.7L282.62 345.95L282.62 346.18L282.62 346.39L282.64 346.56L282.66 346.71L282.7 346.83L282.75 346.91L282.84 347L282.95 347.08L283.08 347.14L283.22 347.18L283.37 347.21L283.54 347.22L283.72 347.22L283.92 347.2L284.13 347.18L284.35 347.14L284.58 347.09L284.82 347.04L285.07 346.97L285.33 346.9L285.6 346.82L285.88 346.73L286.16 346.64L286.46 346.54L286.76 346.45L287.06 346.34L287.37 346.24L287.69 346.13L288 346.03L288.33 345.93L288.65 345.82L288.98 345.72L289.31 345.63L289.64 345.53L289.97 345.45L290.3 345.36L290.64 345.29L290.97 345.22L291.29 345.16L291.62 345.11L291.94 345.07L292.26 345.04L292.58 345.02L292.89 345.02L293.19 345.03L293.49 345.05L293.78 345.09L294.07 345.15L294.35 345.21L294.63 345.29L294.91 345.38L295.18 345.47L295.45 345.58L295.72 345.69L295.98 345.81L296.24 345.94L296.5 346.07L296.75 346.21L297 346.36L297.25 346.51L297.49 346.67L297.73 346.82L297.96 346.99L298.19 347.15L298.41 347.32L298.64 347.48L298.85 347.65L299.07 347.82L299.28 347.99L299.48 348.16L299.68 348.32L299.88 348.49L300.07 348.65L300.26 348.8L300.44 348.96L300.62 349.11L300.79 349.25L300.96 349.39L301.13 349.52L301.29 349.65L301.44 349.76L301.59 349.87L301.74 349.98L301.88 350.07L302.01 350.15L302.14 350.22L302.28 350.29L302.43 350.35L302.59 350.42L302.75 350.48L302.93 350.54L303.11 350.61L303.3 350.67L303.5 350.73L303.69 350.79L303.9 350.85L304.11 350.91L304.32 350.97L304.53 351.03L304.74 351.08L304.96 351.14L305.17 351.2L305.39 351.26L305.6 351.31L305.81 351.37L306.02 351.42L306.22 351.48L306.42 351.54L306.62 351.59L306.81 351.65L306.99 351.7L307.16 351.76L307.33 351.82L307.49 351.87L307.64 351.93L307.78 351.98L307.91 352.04L308.02 352.1L308.13 352.15L308.22 352.21L308.29 352.27L308.36 352.33L308.4 352.39L308.43 352.45L308.45 352.51L308.44 352.57L308.43 352.61L308.4 352.64L308.35 352.67L308.28 352.7L308.2 352.73L308.11 352.75L308 352.76L307.88 352.77L307.74 352.78L307.6 352.79L307.44 352.79L307.27 352.78L307.1 352.78L306.91 352.77L306.72 352.75L306.52 352.74L306.31 352.72L306.1 352.69L305.88 352.67L305.66 352.64L305.43 352.6L305.2 352.57L304.97 352.53L304.74 352.48L304.51 352.44L304.27 352.39L304.04 352.34L303.81 352.28L303.58 352.23L303.35 352.17L303.13 352.11L302.91 352.04L302.7 351.97L302.49 351.9L302.29 351.83L302.1 351.76L301.91 351.68L301.74 351.6L301.57 351.52L301.41 351.43L301.27 351.35L301.11 351.25L300.96 351.15L300.8 351.03L300.64 350.92L300.47 350.8L300.3 350.67L300.12 350.53L299.94 350.4L299.76 350.26L299.57 350.11L299.38 349.96L299.19 349.81L298.99 349.66L298.79 349.51L298.59 349.36L298.38 349.2L298.17 349.05L297.95 348.89L297.74 348.74L297.52 348.59L297.3 348.43L297.07 348.29L296.84 348.14L296.61 348L296.38 347.86L296.14 347.73L295.9 347.6L295.66 347.47L295.41 347.35L295.17 347.24L294.92 347.14L294.67 347.04L294.41 346.95L294.16 346.86L293.9 346.79L293.64 346.72L293.38 346.67L293.11 346.62L292.85 346.59L292.57 346.57L292.27 346.58L291.96 346.61L291.63 346.66L291.29 346.74L290.94 346.83L290.58 346.95L290.2 347.08L289.82 347.22L289.43 347.38L289.03 347.55L288.63 347.73L288.22 347.92L287.81 348.11L287.4 348.31L286.98 348.52L286.57 348.73L286.15 348.94L285.74 349.15L285.32 349.35L284.91 349.56L284.51 349.76L284.11 349.95L283.72 350.13L283.34 350.31L282.96 350.48L282.59 350.63L282.24 350.77L281.9 350.89L281.56 350.99L281.25 351.08L280.95 351.15L280.66 351.2L280.39 351.22L280.14 351.22L279.91 351.19L279.7 351.13L279.51 351.05L279.34 350.93L279.19 350.79L279.14 350.69L279.1 350.56L279.08 350.39L279.08 350.19L279.1 349.96L279.13 349.7L279.17 349.42L279.23 349.11L279.3 348.77L279.38 348.42L279.46 348.04L279.56 347.65L279.66 347.24L279.77 346.82L279.88 346.38L280 345.93L280.12 345.48L280.24 345.01L280.36 344.54L280.47 344.07L280.59 343.6L280.7 343.12L280.81 342.65L280.91 342.18L281 341.71L281.09 341.25L281.16 340.8L281.23 340.37L281.28 339.94L281.32 339.53L281.34 339.13L281.35 338.75L281.34 338.39L281.32 338.05L281.27 337.74L281.21 337.45L281.12 337.18L281.02 336.95L280.88 336.74L280.73 336.57L280.55 336.46L280.34 336.41L280.09 336.41L279.8 336.48L279.48 336.59L279.12 336.75L278.74 336.95L278.32 337.19L277.88 337.48L277.42 337.79L276.94 338.15L276.43 338.53L275.91 338.93L275.38 339.36L274.83 339.81L274.27 340.28L273.7 340.77L273.13 341.26L272.55 341.76L271.97 342.27L271.39 342.78L270.81 343.3L270.24 343.8L269.67 344.3L269.12 344.8L268.57 345.27L268.03 345.74L267.52 346.18L267.02 346.61L266.53 347.01L266.07 347.38L265.64 347.72L265.23 348.03L264.85 348.31L264.5 348.54L264.18 348.73L263.89 348.87L263.65 348.97L263.44 349.02L263.27 349.01L263.1 348.97L262.95 348.92L262.8 348.86L262.67 348.81L262.55 348.75L262.44 348.69L262.34 348.62L262.25 348.56L262.16 348.49L262.09 348.42L262.02 348.34L261.96 348.27L261.91 348.19L261.86 348.11L261.82 348.04L261.78 347.96L261.75 347.88L261.72 347.8L261.7 347.72L261.68 347.65L261.66 347.57L261.64 347.49L261.62 347.42L261.6 347.35L261.59 347.27L261.57 347.21L261.55 347.14L261.53 347.07L261.5 347.01L261.48 346.95L261.45 346.9L261.41 346.85L261.37 346.8L261.33 346.75L261.28 346.71L261.23 346.68L261.16 346.65L261.09 346.62L261.02 346.6L260.93 346.59L260.83 346.58L260.73 346.58L260.62 346.58L260.5 346.59L260.38 346.61L260.25 346.63L260.11 346.66L259.97 346.69L259.82 346.73L259.67 346.76L259.51 346.8L259.35 346.84L259.18 346.88L259.02 346.92L258.85 346.97L258.67 347.01L258.5 347.05L258.32 347.08L258.15 347.12L257.97 347.15L257.79 347.18L257.62 347.2L257.44 347.22L257.26 347.24L257.09 347.25L256.92 347.25L256.75 347.24L256.58 347.23L256.42 347.21L256.26 347.18L256.1 347.14L255.95 347.09L255.8 347.03L255.66 346.96L255.53 346.87L255.4 346.78L255.28 346.67L255.16 346.55L255.05 346.41L254.95 346.26L254.88 346.14L254.82 346L254.77 345.84L254.73 345.67L254.7 345.49L254.67 345.3L254.65 345.09L254.63 344.88L254.62 344.65L254.61 344.42L254.61 344.18L254.61 343.93L254.61 343.68L254.61 343.43L254.61 343.17L254.62 342.91L254.62 342.65L254.62 342.39L254.62 342.13L254.62 341.87L254.61 341.61L254.6 341.36L254.59 341.12L254.57 340.88L254.54 340.65L254.51 340.43L254.47 340.21L254.42 340.01L254.37 339.82L254.3 339.64L254.23 339.47L254.14 339.32L254.05 339.18L253.94 339.06L253.82 338.96L253.69 338.88L253.54 338.81L253.38 338.77L253.2 338.75L253.01 338.75L252.93 338.77L252.83 338.82L252.7 338.91L252.55 339.03L252.37 339.17L252.18 339.34L251.96 339.54L251.73 339.77L251.48 340.01L251.21 340.29L250.93 340.58L250.63 340.89L250.32 341.23L249.99 341.58L249.66 341.95L249.31 342.34L248.95 342.74L248.59 343.15L248.22 343.58L247.84 344.02L247.45 344.47L247.07 344.93L246.67 345.4L246.28 345.87L245.88 346.36L245.49 346.84L245.09 347.33L244.7 347.83L244.31 348.32L243.92 348.82L243.54 349.31L243.16 349.8L242.79 350.29L242.43 350.78L242.08 351.26L241.73 351.73L241.4 352.2L241.08 352.65L240.78 353.1L240.48 353.54L240.38 353.68L240.28 353.82L240.18 353.94L240.08 354.04L239.98 354.13L239.89 354.2L239.79 354.26L239.7 354.31L239.61 354.35L239.52 354.38L239.43 354.39L239.34 354.4L239.26 354.39L239.18 354.38L239.1 354.36L239.03 354.33L238.95 354.3L238.88 354.25L238.81 354.21L238.75 354.15L238.69 354.09L238.63 354.03L238.57 353.96L238.52 353.9L238.47 353.82L238.42 353.75L238.38 353.68L238.34 353.6L238.31 353.53L238.28 353.46L238.25 353.38L238.23 353.31L238.22 353.24L238.2 353.18L238.19 353.12L238.19 353.06L238.19 353.01L238.2 352.96L238.21 352.92L238.22 352.89L238.79 352L239.39 351.03L240.02 349.96L240.66 348.81L241.33 347.59L242.01 346.3L242.71 344.95L243.42 343.53L244.14 342.07L244.87 340.56L245.61 339.01L246.34 337.42L247.08 335.81L247.82 334.18L248.55 332.53L249.28 330.87L250 329.2L250.71 327.54L251.4 325.88L252.08 324.24L252.74 322.62L253.38 321.02L254 319.46L254.59 317.93L255.15 316.44L255.69 315L256.19 313.62L256.65 312.3L257.08 311.05L257.47 309.87L257.82 308.76L258.12 307.74L258.38 306.82L258.59 305.99L258.74 305.26L258.84 304.64L258.89 304.13L258.88 303.74L258.8 303.48L258.67 303.35L258.45 303.43L258.1 303.73L257.63 304.26L257.04 304.99L256.34 305.91L255.53 307.01L254.63 308.28L253.64 309.69L252.57 311.25L251.42 312.92L250.19 314.71L248.91 316.6L247.57 318.56L246.17 320.6L244.74 322.69L243.27 324.82L241.76 326.98L240.24 329.16L238.69 331.33L237.14 333.49L235.58 335.63L234.03 337.73L232.49 339.77L230.96 341.74L229.46 343.63L227.98 345.43L226.55 347.12L225.15 348.69L223.81 350.12L222.52 351.4L221.29 352.52L220.14 353.46L219.06 354.21L218.07 354.75L217.16 355.08L216.35 355.18L215.65 355.03L215.06 354.62L214.58 353.94L214.22 352.97L214.1 352.41L214.03 351.86L214 351.32L214.01 350.78L214.07 350.25L214.16 349.74L214.28 349.23L214.44 348.73L214.63 348.24L214.85 347.76L215.1 347.29L215.37 346.83L215.65 346.38L215.96 345.94L216.28 345.51L216.62 345.09L216.97 344.68L217.33 344.28L217.69 343.9L218.06 343.53L218.43 343.16L218.8 342.81L219.17 342.47L219.53 342.15L219.88 341.83L220.23 341.53L220.56 341.24L220.87 340.97L221.17 340.71L221.45 340.46L221.71 340.22L221.94 340L222.14 339.79L222.32 339.6L222.46 339.42L222.57 339.26L222.65 339.11L222.68 338.97L222.68 338.85L222.63 338.75L222.57 338.71L222.46 338.68L222.3 338.67L222.11 338.67L221.87 338.68L221.59 338.71L221.28 338.75L220.93 338.79L220.55 338.86L220.14 338.93L219.71 339.01L219.25 339.1L218.76 339.2L218.26 339.31L217.74 339.43L217.2 339.55L216.65 339.68L216.09 339.82L215.52 339.97L214.94 340.12L214.36 340.28L213.77 340.44L213.19 340.61L212.61 340.78L212.03 340.95L211.46 341.13L210.9 341.31L210.35 341.49L209.82 341.68L209.3 341.86L208.8 342.05L208.32 342.23L207.86 342.42L207.43 342.6L207.02 342.79L206.65 342.97L206.31 343.15L206 343.33L205.73 343.51L205.49 343.68L205.18 343.94L204.88 344.25L204.58 344.58L204.28 344.95L203.99 345.35L203.71 345.78L203.43 346.23L203.16 346.7L202.89 347.19L202.63 347.7L202.37 348.22L202.12 348.76L201.87 349.31L201.62 349.87L201.38 350.43L201.14 351L200.9 351.56L200.67 352.13L200.44 352.69L200.21 353.25L199.99 353.8L199.77 354.34L199.55 354.87L199.33 355.38L199.11 355.88L198.9 356.35L198.68 356.81L198.47 357.24L198.26 357.64L198.05 358.02L197.84 358.36L197.63 358.67L197.43 358.95L197.22 359.18L197.01 359.38L196.8 359.53L196.59 359.64L196.38 359.7L196.17 359.72L195.96 359.68L195.83 359.62L195.73 359.55L195.63 359.46L195.56 359.35L195.5 359.22L195.46 359.07L195.43 358.9L195.41 358.71L195.42 358.5L195.43 358.28L195.46 358.04L195.51 357.78L195.57 357.5L195.64 357.21L195.73 356.9L195.83 356.57L195.94 356.23L196.07 355.87L196.2 355.49L196.35 355.1L196.52 354.69L196.69 354.27L196.87 353.84L197.07 353.39L197.28 352.92L197.5 352.44L197.72 351.95L197.96 351.44L198.21 350.93L198.47 350.39L198.74 349.85L199.02 349.29L199.3 348.72L199.6 348.14L199.9 347.54L200.21 346.94L200.53 346.32L200.86 345.69L201.19 345.05L201.54 344.4L201.55 344.35L201.54 344.31L201.49 344.28L201.43 344.26L201.33 344.25L201.21 344.24L201.08 344.24L200.92 344.25L200.74 344.27L200.54 344.29L200.33 344.31L200.11 344.34L199.87 344.37L199.62 344.41L199.36 344.45L199.09 344.49L198.81 344.53L198.53 344.58L198.25 344.62L197.96 344.67L197.67 344.71L197.38 344.76L197.1 344.8L196.82 344.84L196.54 344.88L196.27 344.91L196.01 344.95L195.76 344.98L195.51 345L195.29 345.02L195.07 345.03L194.87 345.04L194.69 345.04L194.53 345.03L194.38 345.02L194.26 344.99L194.16 344.96L194.09 344.92L194.04 344.87L194.02 344.81L194.03 344.72L194.08 344.62L194.15 344.52L194.26 344.42L194.39 344.31L194.55 344.2L194.73 344.09L194.94 343.98L195.17 343.86L195.42 343.74L195.69 343.62L195.97 343.5L196.26 343.38L196.57 343.26L196.9 343.14L197.23 343.01L197.56 342.89L197.91 342.77L198.26 342.65L198.61 342.53L198.96 342.4L199.31 342.28L199.66 342.17L200 342.05L200.34 341.94L200.67 341.82L200.99 341.71L201.3 341.61L201.6 341.5L201.88 341.4L202.15 341.3L202.4 341.21L202.63 341.12L202.84 341.03L203.03 340.95L203.19 340.87L203.32 340.79L203.43 340.73L203.51 340.66L203.56 340.61L204.15 339.5L204.76 338.37L205.38 337.23L206.01 336.08L206.64 334.92L207.27 333.76L207.91 332.59L208.55 331.42L209.18 330.24L209.82 329.07L210.45 327.9L211.08 326.74L211.7 325.59L212.31 324.44L212.91 323.3L213.5 322.18L214.08 321.07L214.64 319.98L215.19 318.91L215.72 317.86L216.23 316.83L216.72 315.83L217.19 314.85L217.64 313.91L218.06 312.99L218.45 312.11L218.82 311.26L219.16 310.45L219.46 309.68L219.74 308.95L219.98 308.26L220.18 307.62L220.35 307.02L220.48 306.47L220.57 305.98L220.62 305.53L220.62 305.14L220.58 304.81L220.5 304.54L220.36 304.32L220.19 304.24L219.96 304.32L219.66 304.56L219.3 304.95L218.88 305.48L218.4 306.14L217.86 306.93L217.27 307.84L216.63 308.86L215.92 309.98L215.17 311.19L214.37 312.49L213.51 313.87L212.61 315.31L211.66 316.82L210.66 318.38L209.62 319.99L208.54 321.64L207.41 323.31L206.24 325.01L205.03 326.72L203.79 328.44L202.51 330.16L201.19 331.86L199.83 333.55L198.45 335.21L197.03 336.84L195.58 338.42L194.1 339.96L192.59 341.44L191.06 342.85L189.5 344.19L187.91 345.44L186.3 346.61L184.67 347.68L183.02 348.64L181.35 349.49L179.67 350.22L177.96 350.81L176.24 351.27L175.98 351.32L175.74 351.32L175.53 351.3L175.34 351.25L175.18 351.16L175.04 351.05L174.92 350.92L174.83 350.76L174.75 350.58L174.69 350.37L174.65 350.15L174.62 349.92L174.61 349.66L174.62 349.4L174.63 349.12L174.66 348.83L174.7 348.53L174.75 348.23L174.81 347.92L174.87 347.61L174.94 347.29L175.01 346.98L175.09 346.67L175.17 346.36L175.25 346.05L175.34 345.76L175.42 345.47L175.5 345.19L175.58 344.92L175.65 344.67L175.72 344.43L175.78 344.21L175.84 344.01L175.88 343.83L175.92 343.67L175.95 343.54L175.96 343.43L175.96 343.35L175.95 343.29L175.92 343.27L175.86 343.29L175.77 343.35L175.65 343.46L175.49 343.61L175.31 343.79L175.09 344.01L174.85 344.26L174.58 344.55L174.28 344.86L173.96 345.19L173.63 345.55L173.27 345.93L172.9 346.33L172.51 346.74L172.1 347.16L171.68 347.59L171.26 348.04L170.82 348.48L170.37 348.93L169.92 349.37L169.46 349.82L169 350.26L168.54 350.68L168.08 351.1L167.62 351.51L167.17 351.9L166.72 352.27L166.28 352.62L165.84 352.95L165.42 353.25L165.01 353.52L164.61 353.76L164.23 353.97L163.86 354.14L163.51 354.27L163.18 354.37L162.88 354.41L162.59 354.41L162.33 354.36L162.1 354.26L161.77 354.03L161.5 353.74L161.29 353.42L161.14 353.05L161.04 352.64L161 352.2L161 351.72L161.05 351.21L161.14 350.67L161.28 350.11L161.45 349.52L161.65 348.92L161.89 348.29L162.16 347.65L162.45 347L162.77 346.34L163.11 345.67L163.47 345L163.85 344.32L164.23 343.65L164.63 342.97L165.03 342.31L165.44 341.65L165.85 341L166.26 340.37L166.67 339.75L167.07 339.16L167.46 338.58L167.84 338.03L168.2 337.5L168.55 337.01L168.88 336.54L169.18 336.11L169.46 335.72L169.71 335.37L169.92 335.06L170.11 334.8L170.25 334.58L170.36 334.42L170.42 334.3L170.47 334.19L170.5 334.08L170.51 333.99L170.5 333.91L170.47 333.84L170.43 333.78L170.37 333.73L170.29 333.69L170.2 333.66L170.09 333.63L169.97 333.62L169.84 333.61L169.7 333.61L169.55 333.62L169.39 333.63L169.22 333.65L169.05 333.68L168.86 333.71L168.68 333.75L168.48 333.79L168.29 333.83L168.09 333.88L167.89 333.94L167.69 333.99L167.49 334.05L167.29 334.12L167.09 334.18L166.89 334.25L166.7 334.31L166.52 334.38L166.33 334.45L166.16 334.52L165.99 334.59L165.83 334.66L165.68 334.72L165.54 334.79L165.41 334.85L165.29 334.92L165.18 334.97L165.09 335.03L164.74 335.26L164.38 335.5L164 335.76L163.62 336.03L163.23 336.32L162.83 336.62L162.43 336.93L162.02 337.25L161.6 337.58L161.19 337.92L160.77 338.27L160.35 338.63L159.92 338.99L159.5 339.35L159.09 339.72L158.67 340.09L158.26 340.46L157.85 340.83L157.45 341.21L157.06 341.58L156.68 341.94L156.3 342.31L155.93 342.67L155.58 343.02L155.24 343.37L154.91 343.71L154.59 344.05L154.29 344.37L154.01 344.68L153.74 344.98L153.49 345.27L153.26 345.55L153.05 345.81L152.86 346.06L152.7 346.29L152.56 346.5L152.44 346.69L152.35 346.87L152.28 347.02L152.24 347.15L151.58 350.17L150.84 353.15L150.04 356.1L149.16 359.02L148.23 361.89L147.24 364.72L146.19 367.5L145.1 370.23L143.96 372.9L142.79 375.52L141.57 378.08L140.33 380.58L139.05 383.01L137.76 385.37L136.44 387.65L135.11 389.86L133.78 392L132.43 394.04L131.08 396.01L129.74 397.88L128.4 399.66L127.07 401.34L125.76 402.93L124.47 404.41L123.2 405.79L121.96 407.06L120.75 408.22L119.57 409.26L118.44 410.19L117.36 410.99L116.32 411.67L115.33 412.22L114.41 412.64L113.54 412.93L112.75 413.07L112.02 413.08L111.37 412.94L110.79 412.66L110.3 412.23L109.9 411.64L109.63 410.89L109.52 409.98L109.57 408.93L109.77 407.74L110.11 406.42L110.59 404.98L111.19 403.43L111.91 401.78L112.74 400.03L113.67 398.19L114.69 396.28L115.8 394.31L116.98 392.27L118.24 390.19L119.55 388.06L120.92 385.9L122.34 383.72L123.79 381.53L125.27 379.33L126.77 377.13L128.28 374.95L129.8 372.79L131.32 370.66L132.82 368.56L134.31 366.52L135.77 364.54L137.19 362.62L138.57 360.77L139.9 359.01L141.17 357.34L142.37 355.77L143.5 354.32L144.55 352.98L145.5 351.77L146.35 350.7L147.1 349.78L147.73 349.01L148.24 348.4L148.61 347.97L148.85 347.72L148.95 347.54L149.06 347.21L149.18 346.73L149.31 346.11L149.45 345.36L149.59 344.5L149.73 343.52L149.89 342.45L150.04 341.28L150.2 340.04L150.35 338.71L150.51 337.33L150.67 335.89L150.83 334.4L150.98 332.88L151.13 331.33L151.28 329.77L151.42 328.19L151.56 326.62L151.69 325.05L151.81 323.5L151.92 321.99L152.03 320.5L152.12 319.07L152.2 317.69L152.27 316.37L152.33 315.13L152.37 313.97L152.39 312.91L152.41 311.94L152.4 311.09L152.38 310.36L152.33 309.75L152.27 309.28L152.19 308.97L152.08 308.8L151.96 308.8L151.81 308.98L151.63 309.34L151.43 309.9L151.13 310.73L150.76 311.64L150.33 312.62L149.83 313.67L149.28 314.78L148.67 315.95L148.01 317.17L147.3 318.44L146.54 319.76L145.75 321.13L144.91 322.53L144.05 323.96L143.15 325.42L142.22 326.91L141.26 328.42L140.29 329.95L139.3 331.49L138.29 333.04L137.27 334.59L136.24 336.14L135.21 337.69L134.18 339.23L133.14 340.76L132.12 342.27L131.1 343.76L130.09 345.23L129.1 346.67L128.13 348.07L127.18 349.44L126.25 350.76L125.36 352.04L124.49 353.27L123.66 354.45L122.87 355.56L122.12 356.62L121.41 357.61L120.76 358.52L120.15 359.37L119.6 360.13L119.11 360.81L118.65 361.43L118.2 362.03L117.75 362.59L117.31 363.13L116.87 363.64L116.44 364.13L116.01 364.58L115.59 365L115.18 365.4L114.78 365.77L114.38 366.1L113.99 366.41L113.6 366.68L113.23 366.93L112.86 367.14L112.5 367.32L112.15 367.47L111.81 367.59L111.48 367.68L111.16 367.74L110.85 367.76L110.55 367.75L110.26 367.71L109.98 367.63L109.71 367.52L109.45 367.38L109.2 367.2L108.97 366.99L108.74 366.75L108.53 366.47L108.33 366.15L108.15 365.8L107.97 365.42L107.81 364.99L107.67 364.54L107.54 364.04L107.42 363.51L107.31 362.94L107.23 362.34L107.15 361.7L107.15 361.25L107.21 360.67L107.33 359.97L107.5 359.16L107.73 358.24L108.01 357.22L108.34 356.11L108.71 354.91L109.11 353.64L109.56 352.3L110.03 350.9L110.53 349.44L111.06 347.94L111.61 346.4L112.18 344.83L112.76 343.24L113.36 341.62L113.96 340L114.56 338.38L115.17 336.77L115.78 335.17L116.37 333.59L116.96 332.04L117.54 330.52L118.1 329.05L118.63 327.64L119.15 326.28L119.64 324.98L120.09 323.77L120.52 322.63L120.9 321.58L121.24 320.63L121.54 319.78L121.8 319.05L122 318.44L122.14 317.95L122.23 317.59L122.25 317.38L122.21 317.32L122.1 317.41L121.69 317.88L121.28 318.3L120.88 318.69L120.49 319.06L120.09 319.39L119.71 319.69L119.33 319.96L118.96 320.2L118.59 320.42L118.23 320.61L117.88 320.78L117.54 320.92L117.2 321.05L116.87 321.15L116.56 321.23L116.25 321.3L115.96 321.35L115.67 321.38L115.39 321.4L115.13 321.4L114.88 321.4L114.64 321.38L114.41 321.35L114.2 321.31L114 321.27L113.81 321.22L113.64 321.16L113.48 321.1L113.34 321.04L113.21 320.97L113.1 320.91L113.01 320.84L112.93 320.78L112.87 320.72L112.83 320.66L112.8 320.61L112.8 320.57L112.81 320.53L112.84 320.5L112.89 320.48L113.16 320.41L113.44 320.31L113.74 320.18L114.06 320.04L114.39 319.86L114.73 319.67L115.07 319.46L115.43 319.23L115.8 318.99L116.17 318.73L116.55 318.46L116.93 318.17L117.32 317.88L117.71 317.58L118.1 317.27L118.49 316.95L118.87 316.63L119.26 316.31L119.64 315.98L120.01 315.66L120.38 315.33L120.74 315.01L121.09 314.7L121.43 314.39L121.76 314.08L122.08 313.79L122.38 313.51L122.67 313.24L122.94 312.98L123.2 312.73L123.43 312.51L123.65 312.3L123.84 312.11L124.02 311.94L124.17 311.79L124.29 311.67L124.39 311.57L124.47 311.49L124.51 311.45L124.53 311.43L125.34 308.96L126.15 306.6L126.94 304.33L127.73 302.16L128.51 300.09L129.27 298.12L130.03 296.24L130.77 294.46L131.5 292.76L132.22 291.16L132.92 289.64L133.61 288.22L134.28 286.88L134.94 285.62L135.58 284.45L136.21 283.36L136.82 282.35L137.41 281.41L137.98 280.56L138.54 279.78L139.07 279.07L139.58 278.44L140.08 277.88L140.55 277.39L141 276.96L141.43 276.61L141.83 276.32L142.21 276.09L142.57 275.92L142.9 275.82L143.21 275.78L143.49 275.79L143.74 275.86ZM147.97 351.41L147.71 351.81L147.41 352.25L147.07 352.74L146.69 353.29L146.27 353.89L145.81 354.54L145.31 355.24L144.78 355.99L144.21 356.79L143.6 357.65L142.95 358.55L142.27 359.49L141.56 360.49L140.8 361.54L140.02 362.64L139.2 363.78L138.34 364.97L137.45 366.21L136.53 367.49L135.58 368.82L134.6 370.2L133.58 371.63L132.53 373.1L131.46 374.61L130.35 376.17L129.21 377.78L127.33 380.49L125.58 383.06L123.98 385.5L122.5 387.81L121.15 389.99L119.91 392.04L118.8 393.97L117.79 395.78L116.89 397.47L116.09 399.05L115.38 400.51L114.76 401.86L114.23 403.1L113.78 404.24L113.4 405.28L113.09 406.21L112.84 407.05L112.65 407.8L112.52 408.45L112.44 409.01L112.39 409.48L112.39 409.87L112.42 410.18L112.48 410.41L112.56 410.56L112.66 410.64L112.77 410.65L112.89 410.59L115.6 408.33L118.19 405.93L120.65 403.43L123 400.83L125.24 398.14L127.36 395.39L129.36 392.59L131.26 389.76L133.04 386.91L134.72 384.06L136.29 381.22L137.76 378.42L139.12 375.66L140.38 372.96L141.55 370.34L142.61 367.82L143.58 365.41L144.45 363.12L145.23 360.98L145.92 359L146.53 357.19L147.04 355.57L147.46 354.16L147.81 352.98L148.07 352.03L148.24 351.34L148.34 350.92L148.36 350.79L148.19 351.07L147.97 351.41ZM181.84 333.99L180.7 335.81L180.28 336.81L180.83 336.39L181.9 335.11L182.96 333.47L183.52 331.96L183.01 332.36L181.84 333.99ZM142.01 279.2L140.93 281.15L139.68 283.61L138.32 286.45L136.88 289.55L135.44 292.76L134.03 295.95L132.72 298.99L131.55 301.75L130.58 304.1L129.86 305.9L129.44 307.01L129.37 307.31L132.83 303.54L135.71 299.87L138.04 296.36L139.9 293.04L141.31 289.95L142.34 287.12L143.03 284.6L143.44 282.41L143.6 280.6L143.58 279.21L143.42 278.27L143.16 277.82L142.87 277.9L142.01 279.2Z" id="e4ZC5FtvX"></path><path d="M355.45 280.04L355.78 280.12L356.08 280.22L356.34 280.34L356.57 280.47L356.77 280.62L356.94 280.76L357.07 280.91L357.17 281.05L357.28 281.34L357.31 281.75L357.25 282.28L357.12 282.93L356.92 283.69L356.65 284.56L356.32 285.52L355.92 286.57L355.46 287.7L354.95 288.91L354.39 290.19L353.78 291.54L353.12 292.94L352.43 294.4L351.69 295.9L350.93 297.44L350.13 299.01L349.3 300.61L348.45 302.23L347.59 303.86L346.7 305.5L345.8 307.14L344.9 308.77L343.98 310.39L343.07 311.99L342.15 313.57L341.24 315.12L340.34 316.63L339.45 318.09L338.57 319.51L337.71 320.86L336.88 322.16L336.06 323.38L335.28 324.53L334.53 325.59L333.82 326.57L333.15 327.45L332.51 328.23L331.93 328.9L331.39 329.45L331.17 329.71L330.92 330.06L330.66 330.49L330.39 331L330.1 331.59L329.8 332.24L329.49 332.96L329.17 333.74L328.84 334.57L328.51 335.45L328.17 336.37L327.83 337.33L327.48 338.33L327.14 339.35L326.8 340.39L326.45 341.45L326.12 342.53L325.79 343.61L325.46 344.7L325.14 345.78L324.83 346.85L324.53 347.91L324.25 348.96L323.98 349.98L323.72 350.97L323.48 351.92L323.25 352.84L323.05 353.72L322.86 354.55L322.7 355.32L322.56 356.03L322.45 356.68L322.36 357.26L322.3 357.77L322.26 358.19L322.26 358.53L322.29 358.79L322.36 358.94L322.45 359L322.59 358.95L323.08 358.57L323.66 358.04L324.31 357.36L325.04 356.55L325.85 355.61L326.71 354.55L327.64 353.38L328.63 352.11L329.66 350.74L330.75 349.28L331.87 347.74L333.03 346.13L334.23 344.45L335.45 342.72L336.69 340.93L337.96 339.11L339.23 337.25L340.52 335.37L341.8 333.47L343.09 331.57L344.37 329.66L345.64 327.75L346.9 325.86L348.13 323.99L349.34 322.16L350.53 320.36L351.67 318.6L352.78 316.9L353.84 315.26L354.86 313.69L355.82 312.19L356.72 310.79L357.57 309.47L358.34 308.25L359.04 307.15L359.66 306.16L360.21 305.29L360.66 304.56L361.03 303.96L361.29 303.52L361.4 303.35L361.51 303.19L361.62 303.05L361.74 302.91L361.86 302.79L361.99 302.69L362.12 302.59L362.25 302.5L362.38 302.43L362.51 302.36L362.65 302.31L362.78 302.26L362.92 302.23L363.06 302.2L363.19 302.19L363.33 302.18L363.46 302.18L363.59 302.19L363.72 302.21L363.85 302.23L363.97 302.26L364.09 302.3L364.21 302.35L364.32 302.4L364.43 302.46L364.54 302.53L364.64 302.6L364.73 302.68L364.81 302.76L364.9 302.84L364.97 302.94L365.03 303.03L365.09 303.13L365.14 303.23L365.19 303.34L365.22 303.45L365.24 303.56L365.26 303.68L365.26 303.8L365.25 303.92L365.17 304.81L365.06 305.8L364.93 306.89L364.77 308.06L364.59 309.31L364.39 310.64L364.17 312.03L363.93 313.49L363.67 315L363.4 316.57L363.11 318.18L362.81 319.83L362.49 321.52L362.17 323.23L361.84 324.96L361.5 326.71L361.15 328.46L360.8 330.23L360.45 331.99L360.09 333.74L359.73 335.47L359.38 337.19L359.03 338.88L358.68 340.54L358.33 342.17L358 343.75L357.67 345.28L357.35 346.75L357.04 348.16L356.74 349.51L356.46 350.78L356.19 351.98L355.94 353.09L355.7 354.11L355.49 355.03L355.29 355.85L355.12 356.56L354.97 357.15L354.85 357.63L354.75 357.98L354.8 358.01L355.01 357.93L355.37 357.74L355.86 357.46L356.49 357.08L357.24 356.61L358.1 356.06L359.07 355.43L360.14 354.73L361.3 353.96L362.55 353.13L363.87 352.25L365.27 351.31L366.72 350.33L368.22 349.31L369.78 348.25L371.37 347.17L372.99 346.06L374.63 344.93L376.28 343.79L377.95 342.64L379.61 341.49L381.26 340.33L382.9 339.19L384.51 338.06L386.09 336.95L387.63 335.87L389.12 334.81L390.56 333.79L391.93 332.81L393.23 331.87L394.46 330.99L395.59 330.16L396.64 329.39L397.58 328.69L398.41 328.06L399.12 327.51L399.71 327.05L400.17 326.67L400.48 326.38L400.59 326.28L400.71 326.19L400.82 326.12L400.93 326.05L401.05 326L401.16 325.97L401.27 325.94L401.39 325.92L401.5 325.92L401.6 325.92L401.71 325.94L401.81 325.96L401.91 325.99L402.01 326.04L402.1 326.09L402.19 326.14L402.27 326.21L402.34 326.28L402.41 326.36L402.47 326.44L402.53 326.54L402.58 326.63L402.62 326.73L402.65 326.84L402.67 326.95L402.68 327.06L402.69 327.18L402.68 327.3L402.66 327.42L402.63 327.54L402.59 327.67L402.54 327.8L402.47 327.92L402.39 328.05L402.3 328.18L402.19 328.31L402.07 328.44L401.94 328.56L401.78 328.69L401.62 328.81L401.12 329.16L400.61 329.55L400.09 329.99L399.56 330.47L399.01 330.98L398.46 331.52L397.9 332.1L397.34 332.71L396.77 333.34L396.19 333.99L395.62 334.66L395.05 335.35L394.48 336.06L393.92 336.77L393.36 337.5L392.81 338.23L392.27 338.96L391.75 339.7L391.23 340.43L390.73 341.16L390.24 341.88L389.77 342.59L389.33 343.29L388.9 343.98L388.49 344.64L388.11 345.28L387.76 345.9L387.43 346.5L387.13 347.06L386.87 347.59L386.63 348.09L386.43 348.55L386.27 348.97L386.14 349.34L386.05 349.67L386.01 349.96L386 350.19L386.04 350.36L386.13 350.48L386.26 350.55L386.44 350.54L386.64 350.47L386.88 350.33L387.15 350.13L387.44 349.88L387.76 349.57L388.11 349.22L388.47 348.81L388.86 348.37L389.26 347.88L389.68 347.36L390.12 346.81L390.57 346.23L391.03 345.62L391.5 344.99L391.98 344.35L392.47 343.69L392.96 343.02L393.45 342.34L393.95 341.66L394.44 340.98L394.94 340.3L395.43 339.63L395.91 338.97L396.38 338.32L396.85 337.69L397.31 337.09L397.75 336.51L398.18 335.95L398.59 335.43L398.99 334.95L399.36 334.5L399.72 334.1L400.05 333.74L400.35 333.43L400.63 333.18L400.89 332.98L401.11 332.84L401.3 332.77L401.45 332.77L401.59 332.81L401.71 332.86L401.82 332.93L401.91 333.02L401.99 333.12L402.06 333.23L402.11 333.36L402.16 333.5L402.19 333.64L402.22 333.8L402.23 333.97L402.24 334.14L402.24 334.32L402.23 334.51L402.22 334.7L402.2 334.89L402.18 335.09L402.15 335.29L402.12 335.49L402.09 335.7L402.06 335.9L402.03 336.1L401.99 336.3L401.96 336.5L401.93 336.69L401.9 336.88L401.88 337.06L401.86 337.24L401.84 337.4L401.83 337.56L401.82 337.71L401.83 337.85L401.84 337.98L401.85 338.1L401.88 338.21L401.92 338.3L401.97 338.37L402.03 338.43L402.1 338.48L402.18 338.51L402.28 338.51L402.4 338.47L402.53 338.41L402.67 338.31L402.84 338.19L403.01 338.04L403.2 337.87L403.41 337.67L403.62 337.46L403.85 337.22L404.1 336.97L404.35 336.71L404.62 336.43L404.89 336.13L405.18 335.83L405.48 335.52L405.79 335.21L406.11 334.89L406.43 334.57L406.77 334.25L407.11 333.93L407.46 333.62L407.82 333.31L408.19 333.01L408.56 332.71L408.94 332.43L409.32 332.16L409.71 331.91L410.1 331.67L410.5 331.45L410.9 331.25L411.31 331.07L411.72 330.92L412.13 330.79L412.54 330.69L412.96 330.62L413.37 330.58L413.79 330.57L414.21 330.6L414.63 330.67L414.92 330.74L415.19 330.82L415.44 330.92L415.66 331.03L415.87 331.16L416.06 331.3L416.23 331.45L416.39 331.61L416.52 331.78L416.65 331.96L416.75 332.14L416.85 332.33L416.93 332.53L417 332.74L417.06 332.94L417.11 333.15L417.14 333.37L417.17 333.58L417.2 333.8L417.21 334.01L417.22 334.22L417.23 334.43L417.23 334.64L417.22 334.84L417.21 335.04L417.21 335.23L417.2 335.42L417.19 335.6L417.18 335.77L417.17 335.93L417.17 336.08L417.17 336.22L417.17 336.34L417.18 336.46L417.19 336.55L417.21 336.64L417.24 336.71L417.27 336.76L417.32 336.79L417.37 336.81L417.43 336.81L417.49 336.78L417.56 336.74L417.63 336.67L417.71 336.58L417.81 336.48L417.9 336.36L418.01 336.22L418.12 336.07L418.24 335.9L418.36 335.72L418.49 335.54L418.63 335.34L418.77 335.13L418.92 334.92L419.07 334.7L419.23 334.48L419.4 334.25L419.56 334.03L419.74 333.8L419.92 333.57L420.1 333.35L420.28 333.13L420.47 332.91L420.67 332.7L420.87 332.5L421.07 332.3L421.27 332.12L421.48 331.95L421.69 331.79L421.91 331.64L422.12 331.51L422.34 331.39L422.56 331.29L422.78 331.22L423.01 331.16L423.23 331.12L423.46 331.11L423.69 331.12L423.92 331.15L424.26 331.24L424.58 331.35L424.85 331.48L425.1 331.63L425.31 331.81L425.49 332L425.65 332.21L425.78 332.43L425.88 332.67L425.96 332.93L426.02 333.19L426.06 333.47L426.08 333.75L426.08 334.05L426.07 334.35L426.04 334.65L425.99 334.96L425.94 335.27L425.87 335.59L425.8 335.9L425.72 336.21L425.63 336.52L425.53 336.82L425.44 337.12L425.34 337.41L425.24 337.7L425.14 337.97L425.05 338.23L424.96 338.48L424.87 338.72L424.8 338.94L424.73 339.15L424.67 339.33L424.62 339.5L424.58 339.65L424.56 339.78L424.55 339.88L424.57 339.96L424.6 340.01L424.65 340.04L424.74 340.04L424.85 340.02L424.97 339.97L425.1 339.9L425.25 339.8L425.4 339.68L425.57 339.54L425.75 339.38L425.94 339.2L426.13 339.01L426.34 338.8L426.55 338.59L426.77 338.35L426.99 338.11L427.22 337.86L427.46 337.61L427.7 337.34L427.94 337.08L428.18 336.81L428.42 336.54L428.67 336.26L428.92 336L429.16 335.73L429.41 335.47L429.65 335.21L429.89 334.96L430.12 334.72L430.36 334.5L430.58 334.28L430.81 334.07L431.02 333.89L431.23 333.71L431.43 333.56L431.62 333.42L431.81 333.31L431.98 333.21L432.15 333.14L432.3 333.1L432.44 333.08L432.57 333.09L432.83 333.17L433.07 333.28L433.27 333.43L433.44 333.62L433.58 333.84L433.69 334.09L433.77 334.37L433.84 334.68L433.87 335.01L433.89 335.36L433.89 335.73L433.87 336.13L433.83 336.53L433.77 336.96L433.71 337.39L433.63 337.83L433.54 338.29L433.44 338.74L433.33 339.2L433.22 339.67L433.11 340.13L432.99 340.59L432.87 341.04L432.75 341.49L432.64 341.92L432.52 342.35L432.42 342.76L432.32 343.16L432.23 343.54L432.15 343.9L432.08 344.24L432.02 344.55L431.98 344.84L431.95 345.1L431.95 345.32L431.96 345.52L432 345.68L432.05 345.81L432.13 345.89L432.24 345.94L432.46 345.89L432.74 345.66L433.07 345.26L433.45 344.71L433.88 344.02L434.35 343.18L434.86 342.22L435.41 341.14L435.99 339.95L436.61 338.66L437.26 337.27L437.94 335.81L438.64 334.27L439.36 332.67L440.11 331.01L440.87 329.31L441.64 327.57L442.43 325.81L443.23 324.02L444.03 322.23L444.84 320.44L445.64 318.66L446.45 316.9L447.25 315.17L448.04 313.47L448.82 311.82L449.59 310.23L450.35 308.7L451.08 307.25L451.8 305.88L452.49 304.61L453.16 303.43L453.79 302.37L454.4 301.43L454.97 300.62L455.5 299.94L456 299.42L456.45 299.05L456.85 298.85L457.21 298.83L457.51 299.01L457.73 299.43L457.88 300.07L457.96 300.92L457.98 301.96L457.94 303.2L457.85 304.6L457.7 306.17L457.5 307.88L457.26 309.73L456.98 311.7L456.66 313.79L456.3 315.97L455.92 318.24L455.51 320.58L455.07 322.98L454.62 325.43L454.15 327.92L453.67 330.44L453.18 332.96L452.69 335.48L452.19 337.99L451.7 340.48L451.21 342.92L450.74 345.32L450.27 347.65L449.83 349.91L449.4 352.08L449 354.15L448.63 356.11L448.29 357.95L447.99 359.64L447.72 361.19L447.5 362.57L447.33 363.78L447.2 364.81L447.13 365.63L447.11 366.25L447.16 366.64L447.27 366.79L447.45 366.75L447.67 366.6L447.95 366.32L448.27 365.93L448.64 365.44L449.05 364.86L449.5 364.18L449.99 363.42L450.51 362.58L451.07 361.66L451.65 360.69L452.26 359.65L452.89 358.57L453.55 357.44L454.22 356.27L454.91 355.08L455.61 353.85L456.32 352.61L457.03 351.36L457.76 350.1L458.48 348.85L459.21 347.6L459.93 346.37L460.64 345.16L461.35 343.97L462.04 342.83L462.73 341.72L463.39 340.66L464.04 339.66L464.66 338.72L465.26 337.85L465.83 337.05L466.37 336.33L466.88 335.7L467.35 335.17L467.79 334.73L468.18 334.41L468.53 334.2L468.84 334.1L469.09 334.14L469.3 334.25L469.48 334.36L469.63 334.48L469.74 334.6L469.83 334.73L469.89 334.86L469.93 335L469.94 335.14L469.93 335.29L469.9 335.44L469.86 335.59L469.79 335.75L469.72 335.91L469.63 336.08L469.54 336.25L469.43 336.42L469.32 336.59L469.21 336.76L469.09 336.94L468.97 337.12L468.85 337.3L468.74 337.48L468.63 337.67L468.53 337.85L468.43 338.04L468.35 338.23L468.28 338.41L468.22 338.6L468.18 338.78L468.16 338.97L468.16 339.16L468.18 339.34L468.22 339.53L468.29 339.71L468.38 339.89L468.51 340.07L468.66 340.25L468.85 340.42L469.07 340.6L469.33 340.77L469.61 340.92L469.87 341.04L470.12 341.14L470.36 341.2L470.6 341.24L470.82 341.26L471.03 341.25L471.24 341.22L471.44 341.17L471.63 341.1L471.81 341.01L471.99 340.9L472.16 340.78L472.32 340.65L472.48 340.5L472.64 340.35L472.79 340.18L472.93 340.01L473.07 339.83L473.21 339.65L473.35 339.46L473.48 339.27L473.61 339.08L473.74 338.89L473.86 338.7L473.99 338.52L474.12 338.34L474.24 338.17L474.37 338L474.49 337.85L474.62 337.7L474.75 337.57L474.88 337.45L475.01 337.35L475.15 337.26L475.29 337.2L475.43 337.15L475.57 337.12L475.72 337.11L475.88 337.13L476.03 337.17L476.15 337.24L476.26 337.33L476.34 337.43L476.41 337.56L476.46 337.71L476.5 337.87L476.51 338.05L476.52 338.24L476.51 338.44L476.49 338.65L476.46 338.88L476.42 339.11L476.36 339.35L476.3 339.6L476.24 339.85L476.16 340.1L476.08 340.36L476 340.61L475.91 340.87L475.82 341.12L475.73 341.37L475.63 341.62L475.54 341.86L475.45 342.09L475.36 342.31L475.28 342.52L475.19 342.72L475.12 342.91L475.05 343.09L474.99 343.24L474.93 343.39L474.89 343.51L474.85 343.61L474.83 343.7L474.82 343.76L474.82 343.8L474.83 343.81L474.86 343.8L474.91 343.76L476.24 342.33L477.57 340.85L478.89 339.32L480.19 337.75L481.48 336.14L482.76 334.49L484.02 332.81L485.27 331.11L486.51 329.39L487.72 327.66L488.92 325.91L490.09 324.16L491.25 322.4L492.38 320.65L493.49 318.91L494.58 317.18L495.64 315.47L496.68 313.77L497.69 312.11L498.67 310.47L499.62 308.88L500.54 307.32L501.43 305.81L502.29 304.35L503.11 302.94L503.91 301.59L504.66 300.31L505.38 299.09L506.06 297.95L506.7 296.88L507.31 295.9L507.87 295.01L508.39 294.2L508.87 293.5L509.31 292.89L509.7 292.4L510.04 292.01L510.34 291.74L510.59 291.58L510.79 291.56L511.01 291.67L511.15 291.89L511.2 292.22L511.18 292.67L511.08 293.22L510.9 293.87L510.66 294.63L510.35 295.48L509.98 296.44L509.54 297.49L509.05 298.64L508.51 299.88L507.91 301.21L507.27 302.63L506.58 304.14L505.86 305.74L505.09 307.42L504.29 309.17L503.46 311.01L502.6 312.93L501.71 314.92L500.8 316.99L499.87 319.13L498.93 321.33L497.97 323.61L497.01 325.95L496.04 328.36L495.06 330.83L494.09 333.35L493.12 335.94L492.15 338.59L491.2 341.28L490.26 344.04L489.33 346.84L488.42 349.69L487.54 352.59L486.68 355.53L485.85 358.51L485.05 361.54L484.28 364.61L484.33 364.62L484.56 364.37L484.94 363.87L485.47 363.13L486.15 362.17L486.97 361.01L487.91 359.64L488.97 358.1L490.14 356.39L491.4 354.53L492.76 352.53L494.21 350.4L495.72 348.16L497.3 345.83L498.94 343.42L500.63 340.93L502.35 338.39L504.11 335.81L505.89 333.21L507.68 330.59L509.47 327.97L511.26 325.36L513.04 322.79L514.79 320.26L516.52 317.79L518.2 315.38L519.84 313.07L521.42 310.85L522.93 308.74L524.37 306.77L525.73 304.93L527 303.25L528.16 301.73L529.22 300.4L530.15 299.27L530.97 298.35L531.64 297.65L532.17 297.19L532.55 296.99L532.77 297.05L532.86 297.32L532.87 297.73L532.81 298.28L532.68 298.95L532.48 299.75L532.22 300.65L531.9 301.67L531.53 302.79L531.11 304L530.64 305.3L530.14 306.69L529.6 308.15L529.03 309.67L528.44 311.27L527.82 312.92L527.18 314.61L526.53 316.36L525.88 318.14L525.22 319.95L524.56 321.79L523.9 323.64L523.25 325.51L522.62 327.38L522 329.25L521.41 331.12L520.85 332.97L520.31 334.8L519.81 336.6L519.35 338.38L518.94 340.11L518.57 341.79L518.26 343.43L518.01 345L517.82 346.51L517.69 347.95L517.64 349.32L517.66 350.59L517.76 351.78L517.95 352.87L518.22 353.86L518.26 353.97L518.3 354.1L518.34 354.25L518.39 354.41L518.43 354.59L518.48 354.78L518.53 354.98L518.57 355.19L518.62 355.41L518.66 355.64L518.71 355.87L518.75 356.11L518.78 356.36L518.82 356.6L518.84 356.85L518.87 357.09L518.89 357.34L518.9 357.58L518.91 357.82L518.91 358.05L518.9 358.28L518.89 358.49L518.86 358.7L518.83 358.9L518.79 359.08L518.74 359.25L518.68 359.41L518.61 359.55L518.52 359.67L518.43 359.78L518.32 359.86L518.2 359.93L518.06 359.97L517.91 359.99L517.75 359.98L517.57 359.94L517.37 359.88L517.16 359.79L516.93 359.67L516.69 359.52L515.99 358.93L515.42 358.2L514.96 357.33L514.61 356.33L514.36 355.2L514.21 353.95L514.16 352.6L514.19 351.15L514.31 349.61L514.5 347.98L514.77 346.29L515.09 344.52L515.48 342.71L515.93 340.84L516.42 338.94L516.96 337L517.54 335.05L518.15 333.08L518.79 331.1L519.44 329.13L520.12 327.17L520.81 325.23L521.5 323.32L522.19 321.45L522.88 319.63L523.55 317.86L524.21 316.15L524.85 314.51L525.46 312.96L526.04 311.49L526.58 310.12L527.07 308.86L527.52 307.71L527.91 306.69L528.24 305.79L528.51 305.04L528.71 304.43L528.82 303.99L528.86 303.7L528.81 303.6L528.64 303.7L528.34 304.05L527.9 304.62L527.35 305.41L526.67 306.4L525.89 307.59L525 308.94L524.02 310.46L522.95 312.13L521.8 313.94L520.57 315.88L519.27 317.93L517.9 320.07L516.49 322.31L515.02 324.61L513.51 326.98L511.97 329.4L510.4 331.85L508.8 334.32L507.19 336.81L505.57 339.29L503.95 341.75L502.34 344.19L500.74 346.59L499.15 348.93L497.59 351.2L496.06 353.4L494.57 355.5L493.13 357.49L491.74 359.37L490.41 361.11L489.14 362.72L487.95 364.16L486.83 365.44L485.8 366.53L484.87 367.43L484.03 368.12L483.3 368.59L482.68 368.82L482.18 368.81L481.81 368.56L481.55 368.11L481.41 367.47L481.38 366.64L481.45 365.64L481.61 364.48L481.87 363.17L482.21 361.71L482.63 360.13L483.12 358.44L483.68 356.63L484.3 354.74L484.97 352.75L485.7 350.7L486.46 348.58L487.27 346.41L488.11 344.19L488.97 341.95L489.86 339.69L490.76 337.42L491.67 335.16L492.58 332.91L493.48 330.68L494.38 328.49L495.27 326.35L496.13 324.27L496.97 322.25L497.77 320.32L498.54 318.47L499.26 316.73L499.93 315.1L500.55 313.59L501.11 312.22L501.6 310.99L502.01 309.93L502.35 309.02L502.6 308.3L502.76 307.77L502.83 307.43L502.79 307.31L502.66 307.37L502.45 307.59L502.16 307.94L501.81 308.44L501.38 309.06L500.89 309.8L500.34 310.65L499.74 311.61L499.08 312.66L498.36 313.81L497.6 315.03L496.8 316.33L495.96 317.69L495.08 319.1L494.16 320.57L493.22 322.08L492.25 323.62L491.25 325.18L490.24 326.76L489.21 328.35L488.17 329.95L487.12 331.53L486.06 333.1L485 334.65L483.94 336.16L482.89 337.64L481.84 339.07L480.81 340.45L479.79 341.76L478.79 343.01L477.81 344.17L476.85 345.25L475.93 346.23L475.04 347.12L474.18 347.89L473.36 348.54L472.58 349.07L471.85 349.46L471.17 349.72L470.55 349.82L470.42 349.81L470.32 349.78L470.24 349.73L470.18 349.66L470.13 349.57L470.1 349.46L470.09 349.33L470.09 349.19L470.1 349.04L470.13 348.86L470.17 348.68L470.22 348.49L470.28 348.28L470.35 348.07L470.42 347.85L470.51 347.62L470.59 347.39L470.69 347.16L470.78 346.92L470.88 346.68L470.98 346.44L471.08 346.2L471.18 345.96L471.27 345.72L471.37 345.49L471.46 345.27L471.54 345.05L471.62 344.84L471.7 344.63L471.76 344.44L471.82 344.26L471.86 344.1L471.9 343.94L471.92 343.8L471.93 343.68L471.93 343.58L471.91 343.49L471.88 343.42L471.83 343.38L471.76 343.35L471.67 343.34L471.58 343.33L471.48 343.31L471.38 343.29L471.26 343.27L471.14 343.25L471.01 343.23L470.88 343.2L470.74 343.18L470.59 343.15L470.44 343.13L470.29 343.1L470.13 343.07L469.97 343.04L469.8 343.01L469.64 342.98L469.46 342.95L469.29 342.91L469.12 342.88L468.94 342.85L468.76 342.82L468.58 342.78L468.4 342.75L468.23 342.71L468.05 342.68L467.87 342.65L467.69 342.61L467.52 342.58L467.35 342.55L467.18 342.51L467.01 342.48L466.85 342.45L466.69 342.42L466.53 342.39L466.38 342.36L466.23 342.33L466.09 342.3L465.95 342.27L465.82 342.25L465.7 342.22L465.55 342.26L465.36 342.41L465.13 342.67L464.86 343.04L464.55 343.5L464.2 344.06L463.81 344.7L463.4 345.42L462.95 346.21L462.48 347.07L461.98 347.99L461.45 348.97L460.9 349.99L460.33 351.05L459.75 352.15L459.14 353.28L458.52 354.44L457.89 355.61L457.25 356.79L456.61 357.98L455.95 359.17L455.29 360.34L454.63 361.51L453.97 362.66L453.32 363.78L452.66 364.86L452.01 365.91L451.37 366.92L450.75 367.87L450.13 368.77L449.53 369.6L448.94 370.37L448.37 371.06L447.83 371.66L447.3 372.18L446.8 372.61L446.33 372.94L445.89 373.16L445.47 373.26L445.09 373.25L444.77 373.06L444.52 372.63L444.35 371.97L444.25 371.1L444.21 370.04L444.24 368.79L444.33 367.36L444.47 365.78L444.66 364.04L444.9 362.17L445.18 360.17L445.5 358.06L445.86 355.86L446.25 353.57L446.67 351.2L447.11 348.77L447.57 346.3L448.05 343.78L448.55 341.25L449.05 338.7L449.56 336.15L450.07 333.62L450.58 331.11L451.08 328.64L451.57 326.22L452.05 323.87L452.51 321.59L452.95 319.4L453.36 317.31L453.75 315.33L454.1 313.48L454.42 311.77L454.7 310.21L454.93 308.81L455.12 307.59L455.25 306.56L455.33 305.73L455.35 305.11L455.3 304.72L455.19 304.57L454.96 304.61L454.67 304.84L454.33 305.23L453.94 305.78L453.5 306.48L453.02 307.32L452.5 308.29L451.94 309.38L451.34 310.59L450.72 311.89L450.06 313.29L449.37 314.76L448.66 316.32L447.92 317.94L447.17 319.61L446.4 321.33L445.62 323.09L444.82 324.87L444.01 326.67L443.2 328.48L442.39 330.3L441.57 332.1L440.76 333.88L439.95 335.63L439.15 337.34L438.35 339.01L437.57 340.62L436.81 342.17L436.06 343.64L435.34 345.02L434.64 346.31L433.96 347.5L433.32 348.57L432.7 349.53L432.12 350.35L431.57 351.03L431.07 351.56L430.61 351.93L430.19 352.14L429.82 352.16L429.56 352.08L429.34 351.96L429.16 351.79L429.01 351.59L428.88 351.34L428.79 351.06L428.72 350.75L428.68 350.4L428.66 350.03L428.67 349.63L428.7 349.21L428.74 348.76L428.81 348.3L428.89 347.82L428.98 347.33L429.09 346.83L429.2 346.31L429.33 345.79L429.46 345.27L429.61 344.75L429.75 344.22L429.9 343.7L430.05 343.19L430.2 342.68L430.35 342.19L430.5 341.71L430.64 341.24L430.77 340.79L430.9 340.36L431.01 339.96L431.12 339.58L431.21 339.22L431.28 338.9L431.34 338.61L431.39 338.36L431.41 338.14L431.41 337.96L431.39 337.83L431.34 337.74L431.27 337.7L431.12 337.69L430.96 337.72L430.78 337.78L430.6 337.89L430.4 338.02L430.19 338.19L429.98 338.38L429.75 338.61L429.52 338.85L429.28 339.12L429.03 339.41L428.78 339.72L428.52 340.05L428.25 340.39L427.98 340.74L427.71 341.1L427.43 341.47L427.15 341.85L426.87 342.23L426.59 342.62L426.3 343L426.01 343.38L425.73 343.76L425.44 344.13L425.16 344.49L424.88 344.84L424.6 345.18L424.32 345.5L424.04 345.81L423.77 346.09L423.51 346.36L423.25 346.61L422.99 346.82L422.74 347.02L422.5 347.18L422.27 347.31L422.04 347.41L421.82 347.47L421.61 347.49L421.41 347.47L421.2 347.41L421.01 347.31L420.86 347.16L420.73 346.99L420.64 346.77L420.57 346.53L420.53 346.25L420.51 345.95L420.51 345.62L420.53 345.27L420.57 344.9L420.63 344.5L420.71 344.09L420.79 343.67L420.89 343.23L421 342.78L421.12 342.32L421.25 341.86L421.38 341.39L421.52 340.92L421.65 340.45L421.79 339.98L421.93 339.51L422.06 339.06L422.19 338.61L422.31 338.17L422.43 337.74L422.53 337.33L422.63 336.93L422.71 336.55L422.78 336.2L422.83 335.87L422.86 335.56L422.88 335.28L422.87 335.03L422.84 334.81L422.79 334.63L422.71 334.48L422.6 334.37L422.46 334.3L422.34 334.3L422.2 334.35L422.04 334.45L421.86 334.6L421.66 334.8L421.45 335.03L421.22 335.31L420.98 335.62L420.72 335.96L420.45 336.34L420.16 336.74L419.87 337.17L419.57 337.62L419.26 338.09L418.94 338.57L418.62 339.07L418.29 339.58L417.96 340.1L417.62 340.62L417.28 341.14L416.94 341.66L416.61 342.18L416.27 342.69L415.94 343.19L415.61 343.68L415.28 344.16L414.96 344.61L414.65 345.04L414.34 345.45L414.04 345.84L413.76 346.19L413.48 346.51L413.22 346.8L412.97 347.04L412.73 347.25L412.51 347.41L412.3 347.52L412.12 347.59L411.95 347.6L411.8 347.56L411.68 347.46L411.6 347.32L411.55 347.15L411.52 346.93L411.53 346.68L411.56 346.39L411.61 346.08L411.68 345.73L411.77 345.36L411.88 344.96L412 344.54L412.14 344.1L412.29 343.64L412.44 343.17L412.6 342.68L412.77 342.19L412.94 341.68L413.1 341.17L413.27 340.65L413.43 340.13L413.59 339.61L413.74 339.1L413.88 338.58L414.01 338.08L414.12 337.58L414.22 337.1L414.3 336.63L414.36 336.17L414.4 335.73L414.41 335.32L414.4 334.92L414.36 334.55L414.29 334.21L414.18 333.9L414.05 333.62L413.87 333.37L413.66 333.16L413.4 332.99L413.11 332.86L412.77 332.77L412.53 332.75L412.26 332.78L411.98 332.86L411.67 332.99L411.35 333.15L411.01 333.35L410.66 333.59L410.29 333.87L409.91 334.17L409.51 334.51L409.11 334.87L408.69 335.25L408.27 335.65L407.84 336.08L407.41 336.52L406.97 336.97L406.53 337.43L406.09 337.9L405.64 338.38L405.2 338.86L404.76 339.34L404.33 339.82L403.9 340.29L403.47 340.76L403.05 341.21L402.64 341.66L402.24 342.09L401.86 342.5L401.48 342.89L401.12 343.26L400.77 343.6L400.44 343.92L400.13 344.2L399.84 344.45L399.56 344.67L399.31 344.85L399.08 344.99L398.88 345.08L398.7 345.13L398.55 345.13L398.41 345.09L398.3 345.03L398.2 344.96L398.12 344.86L398.06 344.75L398.02 344.63L397.99 344.49L397.97 344.34L397.97 344.18L397.98 344.01L398 343.83L398.03 343.64L398.06 343.44L398.11 343.23L398.16 343.02L398.22 342.8L398.28 342.58L398.35 342.36L398.42 342.13L398.48 341.91L398.55 341.68L398.62 341.46L398.69 341.24L398.75 341.02L398.82 340.8L398.87 340.59L398.92 340.39L398.96 340.19L399 340L399.02 339.82L399.04 339.66L399.04 339.5L399.03 339.35L399.01 339.22L398.98 339.1L398.93 338.99L398.86 338.91L398.77 338.83L398.67 338.78L398.55 338.75L398.4 338.76L398.22 338.85L398.02 339L397.79 339.22L397.53 339.5L397.26 339.83L396.96 340.22L396.64 340.65L396.3 341.13L395.94 341.65L395.56 342.2L395.17 342.79L394.76 343.4L394.34 344.03L393.91 344.68L393.47 345.35L393.02 346.03L392.56 346.71L392.09 347.4L391.62 348.08L391.14 348.76L390.66 349.43L390.17 350.08L389.69 350.72L389.21 351.33L388.73 351.91L388.25 352.47L387.77 352.99L387.3 353.47L386.84 353.91L386.39 354.3L385.94 354.63L385.51 354.92L385.09 355.14L384.68 355.3L384.28 355.39L383.9 355.41L383.54 355.35L383.19 355.21L382.87 354.99L382.62 354.72L382.44 354.4L382.32 354.03L382.26 353.61L382.25 353.15L382.3 352.65L382.4 352.11L382.54 351.55L382.73 350.95L382.95 350.33L383.21 349.68L383.5 349.02L383.82 348.34L384.16 347.65L384.52 346.95L384.9 346.25L385.29 345.54L385.69 344.84L386.1 344.14L386.51 343.44L386.91 342.76L387.32 342.1L387.71 341.45L388.09 340.83L388.46 340.23L388.81 339.66L389.13 339.12L389.43 338.62L389.7 338.15L389.94 337.73L390.14 337.35L390.29 337.02L390.41 336.75L390.47 336.53L390.49 336.37L390.44 336.27L390.34 336.23L390.18 336.27L389.95 336.38L389.66 336.57L389.52 336.66L389.29 336.81L388.97 337.03L388.57 337.32L388.08 337.66L387.52 338.05L386.88 338.5L386.18 339L385.41 339.54L384.58 340.12L383.69 340.74L382.76 341.4L381.78 342.08L380.75 342.8L379.69 343.55L378.6 344.31L377.48 345.1L376.34 345.9L375.17 346.71L373.99 347.54L372.8 348.37L371.6 349.2L370.4 350.03L369.21 350.86L368.02 351.68L366.84 352.5L365.68 353.3L364.53 354.08L363.42 354.85L362.33 355.59L361.27 356.3L360.26 356.99L359.28 357.65L358.35 358.26L357.48 358.85L356.66 359.38L355.9 359.88L355.2 360.32L354.57 360.71L354.02 361.05L353.95 361.12L353.86 361.25L353.75 361.44L353.63 361.69L353.49 361.99L353.33 362.35L353.15 362.76L352.96 363.21L352.75 363.71L352.52 364.25L352.27 364.83L352.01 365.45L351.74 366.11L351.45 366.79L351.14 367.51L350.82 368.25L350.49 369.02L350.14 369.81L349.77 370.63L349.39 371.45L349 372.3L348.6 373.15L348.18 374.02L347.75 374.89L347.3 375.77L346.85 376.65L346.38 377.53L345.9 378.41L345.41 379.28L344.91 380.14L344.39 380.99L343.87 381.84L343.33 382.66L342.79 383.47L342.23 384.26L341.67 385.02L341.09 385.76L340.51 386.47L339.91 387.15L339.31 387.8L338.56 388.57L337.81 389.3L337.08 389.99L336.36 390.62L335.65 391.22L334.96 391.77L334.28 392.28L333.61 392.75L332.96 393.18L332.32 393.57L331.69 393.93L331.07 394.25L330.47 394.54L329.88 394.79L329.3 395.02L328.73 395.21L328.18 395.37L327.64 395.51L327.12 395.61L326.61 395.7L326.11 395.75L325.62 395.79L325.15 395.8L324.69 395.79L324.24 395.76L323.8 395.72L323.38 395.65L322.98 395.57L322.58 395.48L322.2 395.37L321.83 395.24L321.48 395.11L321.13 394.97L320.81 394.81L320.49 394.65L320.19 394.49L319.9 394.32L319.62 394.14L319.36 393.96L319.11 393.78L318.81 393.53L318.54 393.26L318.28 392.95L318.05 392.62L317.85 392.26L317.67 391.88L317.52 391.46L317.39 391.03L317.3 390.56L317.24 390.07L317.21 389.56L317.21 389.02L317.25 388.47L317.32 387.88L317.43 387.28L317.57 386.66L317.76 386.01L317.98 385.35L318.25 384.66L318.56 383.96L318.91 383.24L319.3 382.5L319.74 381.74L320.23 380.97L320.76 380.18L321.35 379.38L321.98 378.56L322.66 377.73L323.4 376.89L324.19 376.03L325.04 375.16L325.94 374.28L326.89 373.38L327.91 372.48L328.98 371.56L330.11 370.64L331.31 369.71L332.57 368.77L333.89 367.82L335.27 366.87L335.73 366.56L336.19 366.27L336.66 365.98L337.13 365.7L337.61 365.43L338.08 365.16L338.56 364.9L339.05 364.65L339.53 364.41L340.01 364.17L340.49 363.94L340.97 363.72L341.45 363.5L341.92 363.29L342.39 363.09L342.86 362.89L343.32 362.7L343.78 362.51L344.23 362.33L344.68 362.15L345.11 361.98L345.54 361.81L345.96 361.65L346.37 361.49L346.77 361.34L347.16 361.19L347.54 361.04L347.91 360.9L348.26 360.76L348.6 360.63L348.93 360.5L349.24 360.37L349.53 360.25L349.81 360.12L350.08 360L350.32 359.88L350.55 359.77L350.76 359.66L350.94 359.54L351.11 359.43L351.28 359.24L351.47 358.89L351.69 358.38L351.93 357.73L352.18 356.95L352.45 356.03L352.74 355L353.04 353.86L353.35 352.62L353.68 351.29L354.01 349.87L354.35 348.38L354.7 346.82L355.05 345.21L355.4 343.54L355.76 341.83L356.11 340.09L356.46 338.33L356.81 336.55L357.15 334.77L357.49 332.99L357.81 331.21L358.13 329.46L358.44 327.74L358.73 326.05L359 324.41L359.26 322.82L359.51 321.29L359.73 319.83L359.93 318.46L360.11 317.17L360.26 315.98L360.39 314.89L360.49 313.92L360.55 313.07L360.59 312.35L360.6 311.77L360.57 311.33L360.51 311.06L360.4 310.95L360.22 311.03L359.93 311.33L359.53 311.82L359.03 312.5L358.43 313.35L357.75 314.37L356.97 315.53L356.12 316.84L355.19 318.27L354.2 319.82L353.14 321.48L352.02 323.23L350.85 325.06L349.63 326.96L348.38 328.91L347.08 330.92L345.76 332.96L344.41 335.02L343.04 337.09L341.66 339.16L340.27 341.22L338.87 343.26L337.48 345.26L336.1 347.21L334.73 349.11L333.37 350.94L332.05 352.68L330.75 354.33L329.49 355.87L328.27 357.3L327.09 358.6L325.97 359.76L324.91 360.77L323.9 361.61L322.97 362.28L322.11 362.76L321.33 363.04L320.63 363.12L320.03 362.97L319.52 362.59L319.31 362.29L319.16 361.92L319.06 361.47L319.01 360.95L319 360.36L319.03 359.7L319.1 358.99L319.21 358.22L319.35 357.4L319.52 356.54L319.73 355.63L319.96 354.69L320.21 353.72L320.48 352.73L320.78 351.71L321.09 350.67L321.41 349.62L321.74 348.56L322.09 347.5L322.43 346.44L322.79 345.39L323.14 344.35L323.49 343.32L323.83 342.31L324.17 341.32L324.5 340.37L324.81 339.45L325.12 338.56L325.4 337.72L325.66 336.93L325.9 336.18L326.12 335.5L326.31 334.87L326.46 334.32L326.59 333.83L326.68 333.41L326.73 333.08L326.74 332.83L326.71 332.67L326.63 332.61L326.52 332.59L326.41 332.59L326.29 332.61L326.17 332.63L326.05 332.66L325.92 332.7L325.78 332.75L325.65 332.8L325.51 332.86L325.37 332.93L325.22 333L325.08 333.07L324.93 333.15L324.78 333.22L324.63 333.3L324.48 333.38L324.33 333.45L324.19 333.53L324.04 333.6L323.89 333.67L323.74 333.73L323.6 333.79L323.46 333.84L323.32 333.88L323.18 333.92L323.04 333.94L322.91 333.96L322.79 333.96L322.66 333.96L322.55 333.94L322.43 333.9L322.33 333.86L322.22 333.79L322.13 333.71L322.04 333.62L321.95 333.5L321.88 333.37L321.81 333.22L321.75 333.04L321.7 332.85L321.66 332.64L321.64 332.45L321.66 332.27L321.7 332.1L321.76 331.95L321.84 331.8L321.95 331.66L322.08 331.53L322.22 331.4L322.39 331.28L322.57 331.17L322.77 331.06L322.98 330.95L323.2 330.84L323.44 330.74L323.68 330.63L323.94 330.53L324.2 330.42L324.47 330.31L324.75 330.19L325.03 330.07L325.31 329.95L325.6 329.82L325.89 329.68L326.17 329.53L326.46 329.37L326.74 329.21L327.02 329.03L327.29 328.84L327.56 328.63L327.82 328.41L328.07 328.18L328.31 327.93L328.54 327.67L328.76 327.38L328.96 327.08L329.15 326.75L329.32 326.41L329.48 326.04L329.62 325.66L330.84 321.88L332.04 318.32L333.21 314.96L334.36 311.79L335.49 308.82L336.58 306.03L337.66 303.42L338.7 300.99L339.72 298.72L340.72 296.62L341.68 294.67L342.62 292.88L343.54 291.23L344.42 289.72L345.28 288.35L346.11 287.1L346.91 285.98L347.69 284.97L348.43 284.08L349.15 283.29L349.84 282.61L350.5 282.01L351.13 281.51L351.73 281.09L352.3 280.75L352.84 280.48L353.36 280.27L353.84 280.13L354.29 280.04L354.71 280L355.1 280L355.45 280.04ZM342.66 365.1L339.23 366.83L336.05 368.75L333.13 370.82L330.48 373L328.12 375.24L326.05 377.5L324.29 379.74L322.85 381.91L321.73 383.96L320.96 385.86L320.54 387.55L320.48 389L320.79 390.16L321.49 390.99L322.59 391.43L325.5 391.69L328.17 391.4L330.62 390.62L332.86 389.41L334.91 387.83L336.78 385.94L338.49 383.81L340.05 381.5L341.49 379.06L342.81 376.55L344.04 374.05L345.18 371.6L346.26 369.28L347.28 367.14L348.28 365.24L349.25 363.65L350.22 362.42L346.33 363.62L342.66 365.1ZM350.62 286.35L349.2 288.1L347.7 290.32L346.13 292.92L344.54 295.81L342.94 298.91L341.37 302.14L339.86 305.4L338.44 308.6L337.14 311.67L335.98 314.51L335.01 317.03L334.24 319.16L333.71 320.8L333.45 321.86L333.49 322.26L333.92 321.9L334.74 320.83L335.9 319.14L337.35 316.93L339 314.3L340.82 311.34L342.72 308.15L344.65 304.82L346.55 301.45L348.35 298.14L349.99 294.98L351.42 292.07L352.56 289.5L353.35 287.37L353.74 285.79L353.66 284.83L353.05 284.61L351.91 285.16L350.62 286.35Z" id="aGAOcBNcM"></path><path d="M477.17 329.94C478.14 330.1 480.16 328.89 480 326.71C479.76 324.44 478.06 325.25 478.06 325.25C476.53 326.3 476.2 329.7 477.17 329.94Z" id="aM8McrFow"></path></defs><g><g><use xlink:href="#e4ZC5FtvX" opacity="1" fill="#000000" fill-opacity="1"></use><g><use xlink:href="#e4ZC5FtvX" opacity="1" fill-opacity="0" stroke="#000000" stroke-width="1" stroke-opacity="0"></use></g></g><g><use xlink:href="#aGAOcBNcM" opacity="1" fill="#000000" fill-opacity="1"></use><g><use xlink:href="#aGAOcBNcM" opacity="1" fill-opacity="0" stroke="#000000" stroke-width="1" stroke-opacity="0"></use></g></g><g><use xlink:href="#aM8McrFow" opacity="1" fill="#000000" fill-opacity="1"></use><g><use xlink:href="#aM8McrFow" opacity="1" fill-opacity="0" stroke="#000000" stroke-width="1" stroke-opacity="0"></use></g></g></g></svg>