<?xml version="1.0" encoding="UTF-8" standalone="no"?>
<!DOCTYPE svg PUBLIC "-//W3C//DTD SVG 1.1//EN" "http://www.w3.org/Graphics/SVG/1.1/DTD/svg11.dtd">
<svg version="1.1" xmlns="http://www.w3.org/2000/svg" xmlns:xlink="http://www.w3.org/1999/xlink" preserveAspectRatio="xMidYMid meet" viewBox="168.64444058119983 148.01010101010093 319.38616438835646 278.82828282828285" width="315.39" height="274.83"><defs><path d="M199.76 397.41C217.37 421.17 232.24 423.68 242.91 423.68C270.14 423.68 278.79 405.66 284.04 405.66C292.44 405.66 290.59 423.68 296.57 423.43C299.64 423.27 297.29 359.43 297.29 312.81C297.29 307.31 314.18 309.01 316.36 308.61C318.14 308.28 317.49 305.86 316.36 305.86C309.33 305.86 247.84 306.67 242.26 308.2C241.13 308.53 241.13 310.55 241.86 310.55C245.66 310.79 269.25 309.41 274.51 310.3C277.41 310.79 276.04 378.1 276.04 384.57C276.04 393.62 265.29 420.12 241.7 418.83C220.77 417.7 204.93 398.38 200 352.97C194.51 302.63 197.49 268.93 197.58 249.94C197.74 220.12 205.33 198.87 203.56 192.81C201.78 186.75 196.93 180.93 198.38 175.52C199.84 170.1 232.4 152.08 244.36 152.73C256.4 153.37 264.08 161.13 264.08 166.87C264.08 172.61 259.72 178.67 261.98 183.84C263.68 187.8 274.67 198.63 280.65 203.23C286.79 207.92 283.07 221.49 286.63 222.22C289.54 222.79 290.34 210.1 288.57 205.01C285.49 196.28 274.51 192.4 274.51 185.21C274.51 178.02 287.27 172.85 289.05 159.19C289.86 153.29 289.54 150.3 286.71 150.3C282.02 150.3 286.79 158.87 280.97 161.45C273.13 165.01 270.22 149.17 246.06 149.17C228.77 149.17 185.37 169.54 184.57 176C183.68 183.03 189.33 185.94 185.62 197.09C181.98 207.76 173.74 237.33 170.34 266.26C168.65 280.97 167.43 353.7 199.76 397.41Z" id="fgGAtiMX"></path><path d="M409.29 418.99C432.89 420.28 443.64 393.78 443.64 384.73C443.64 378.18 445.01 310.95 442.1 310.46C436.85 309.58 413.25 310.95 409.45 310.71C408.73 310.63 408.73 308.69 409.86 308.36C415.43 306.83 476.93 306.02 483.96 306.02C485.09 306.02 485.66 308.44 483.96 308.77C481.78 309.17 464.89 307.47 464.89 312.97C464.89 359.6 467.23 423.52 464.16 423.6C458.18 423.84 460.04 405.82 451.64 405.82C446.38 405.82 437.74 423.84 410.51 423.84C399.84 423.84 384.97 421.33 367.35 397.58C334.95 353.94 336.65 277.17 337.54 262.38C338.75 243.07 341.98 235.72 341.98 228.2C341.98 220.61 332.44 210.99 334.63 205.58C336.81 200.16 352.08 196.77 356.61 192.24C361.13 187.72 381.98 149.01 409.62 149.01C437.25 149.01 440.16 162.67 446.63 162.67C454.14 162.67 450.34 151.11 455.27 151.11C457.05 151.11 459.56 223.84 455.68 223.84C450.26 223.84 449.37 153.78 412.12 152.57C384.73 151.68 374.14 195.88 369.13 201.78C364.12 207.6 356.53 209.05 355.39 213.82C353.62 221.41 362.26 231.68 364.04 237.82C365.82 243.88 362.1 302.79 367.6 353.13C372.53 398.55 388.36 417.86 409.29 418.99Z" id="c16g1psLve"></path></defs><g><g><use xlink:href="#fgGAtiMX" opacity="1" fill="#a33543" fill-opacity="1"></use><g><use xlink:href="#fgGAtiMX" opacity="1" fill-opacity="0" stroke="#000000" stroke-width="1" stroke-opacity="0"></use></g></g><g><use xlink:href="#c16g1psLve" opacity="1" fill="#a33543" fill-opacity="1"></use><g><use xlink:href="#c16g1psLve" opacity="1" fill-opacity="0" stroke="#000000" stroke-width="1" stroke-opacity="0"></use></g></g></g></svg>